<svg width="17" height="16" viewBox="0 0 17 16" fill="none" xmlns="http://www.w3.org/2000/svg">
<path d="M6.24414 6H11.5775" stroke="#091E42" stroke-linecap="round" stroke-linejoin="round"/>
<path d="M6.24414 8.66602H10.2441" stroke="#091E42" stroke-linecap="round" stroke-linejoin="round"/>
<path d="M6.91016 11.9993H4.91016C4.37972 11.9993 3.87102 11.7886 3.49594 11.4136C3.12087 11.0385 2.91016 10.5298 2.91016 9.99935V4.66602C2.91016 4.13558 3.12087 3.62687 3.49594 3.2518C3.87102 2.87673 4.37972 2.66602 4.91016 2.66602H12.9102C13.4406 2.66602 13.9493 2.87673 14.3244 3.2518C14.6994 3.62687 14.9102 4.13558 14.9102 4.66602V9.99935C14.9102 10.5298 14.6994 11.0385 14.3244 11.4136C13.9493 11.7886 13.4406 11.9993 12.9102 11.9993H10.9102L8.91016 13.9993L6.91016 11.9993Z" stroke="#091E42" stroke-linecap="round" stroke-linejoin="round"/>
</svg>
