<svg width="20" height="20" viewBox="0 0 20 20" fill="none" xmlns="http://www.w3.org/2000/svg">
<path d="M7.08333 7.91667C7.54357 7.91667 7.91667 7.54357 7.91667 7.08333C7.91667 6.6231 7.54357 6.25 7.08333 6.25C6.6231 6.25 6.25 6.6231 6.25 7.08333C6.25 7.54357 6.6231 7.91667 7.08333 7.91667Z" fill="white" stroke="white" stroke-width="0.8" stroke-linecap="round" stroke-linejoin="round"/>
<path d="M3.33203 5.8335V9.04933C3.33203 9.49683 3.50953 9.926 3.8262 10.2427L10.5895 17.006C10.7462 17.1627 10.9323 17.287 11.137 17.3719C11.3418 17.4567 11.5612 17.5003 11.7829 17.5003C12.0045 17.5003 12.2239 17.4567 12.4287 17.3719C12.6335 17.287 12.8195 17.1627 12.9762 17.006L17.0045 12.9777C17.1613 12.821 17.2856 12.6349 17.3704 12.4302C17.4552 12.2254 17.4989 12.006 17.4989 11.7843C17.4989 11.5627 17.4552 11.3432 17.3704 11.1385C17.2856 10.9337 17.1613 10.7477 17.0045 10.591L10.2404 3.82766C9.92406 3.51141 9.49515 3.33367 9.04786 3.3335H5.83203C5.16899 3.3335 4.53311 3.59689 4.06426 4.06573C3.59542 4.53457 3.33203 5.17045 3.33203 5.8335Z" stroke="white" stroke-width="0.8" stroke-linecap="round" stroke-linejoin="round"/>
</svg>
