<svg width="39" height="39" viewBox="0 0 39 39" fill="none" xmlns="http://www.w3.org/2000/svg">
<circle cx="19.5" cy="19.5" r="19.25" fill="#091E42" stroke="white" stroke-width="0.5"/>
<path d="M15.8221 29.0161C12.677 29.0161 10.1274 26.4665 10.1274 23.3214V12.4515C10.1274 11.2616 11.0922 10.2969 12.2821 10.2969C13.472 10.2969 14.4367 11.2616 14.4367 12.4515V23.3214C14.4367 24.0864 15.0569 24.7065 15.8218 24.7065V29.0161H15.8221Z" fill="url(#paint0_linear_14763_79214)"/>
<path d="M21.8505 26.8205C21.8288 25.6343 20.811 24.7062 19.6248 24.7062H16.9668C16.4848 24.7062 16.0027 24.6899 15.5217 24.6575C13.312 24.345 10.7621 22.7487 10.1279 20.6602C10.1279 22.3544 10.1386 22.3628 10.1386 23.3212C10.1386 26.4662 12.6882 29.0158 15.8333 29.0158H19.6969C20.9005 29.0158 21.8735 28.0291 21.8512 26.8208L21.8505 26.8205Z" fill="url(#paint1_linear_14763_79214)"/>
<path d="M22.8562 12.5088C22.8675 13.7601 21.8194 14.139 20.5631 14.1504C19.3068 14.1617 18.3181 13.8008 18.3067 12.5495C18.2954 11.2982 19.3048 10.2751 20.5611 10.2638C21.8174 10.2524 22.8448 11.2575 22.8562 12.5088Z" fill="white"/>
<path d="M26.4717 14.1504C27.728 14.139 28.7758 13.7601 28.7648 12.5088C28.7535 11.2575 27.726 10.2524 26.4697 10.2638C25.2134 10.2751 24.2043 11.2982 24.2157 12.5495C24.227 13.8008 25.2158 14.1614 26.4721 14.1504H26.4717Z" fill="white"/>
<defs>
<linearGradient id="paint0_linear_14763_79214" x1="16.2114" y1="25.1432" x2="9.93863" y2="14.3193" gradientUnits="userSpaceOnUse">
<stop offset="0.15" stop-color="#C19934"/>
<stop offset="0.21" stop-color="#CFA73A"/>
<stop offset="0.33" stop-color="#E4BC44"/>
<stop offset="0.45" stop-color="#F1C94A"/>
<stop offset="0.55" stop-color="#F6CE4C"/>
</linearGradient>
<linearGradient id="paint1_linear_14763_79214" x1="11.8272" y1="23.112" x2="17.0942" y2="26.7948" gradientUnits="userSpaceOnUse">
<stop stop-color="#C69C34"/>
<stop offset="0.01" stop-color="#C89E35"/>
<stop offset="0.17" stop-color="#E1B841"/>
<stop offset="0.32" stop-color="#F0C849"/>
<stop offset="0.43" stop-color="#F6CE4C"/>
</linearGradient>
</defs>
</svg>
